<svg
  xmlns="http://www.w3.org/2000/svg"
  width="16"
  height="16"
  viewBox="0 0 24 24"
  fill="currentColor"
>
  <path d="M12 .5C5.65.5.5 5.65.5 12a11.5 11.5 0 0 0 7.86 10.94c.58.11.79-.25.79-.56v-2c-3.2.7-3.88-1.54-3.88-1.54-.52-1.32-1.26-1.67-1.26-1.67-1.03-.7.08-.68.08-.68 1.14.08 1.73 1.18 1.73 1.18 1.02 1.74 2.68 1.23 3.33.94.1-.74.4-1.23.73-1.51-2.56-.3-5.26-1.28-5.26-5.67 0-1.25.44-2.27 1.17-3.07-.12-.3-.51-1.5.11-3.12 0 0 .96-.31 3.15 1.17a10.9 10.9 0 0 1 5.74 0c2.19-1.48 3.15-1.17 3.15-1.17.62 1.62.23 2.82.11 3.12.73.8 1.17 1.82 1.17 3.07 0 4.41-2.7 5.37-5.27 5.66.41.35.78 1.03.78 2.08v3.08c0 .31.21.67.79.56A11.5 11.5 0 0 0 23.5 12C23.5 5.65 18.35.5 12 .5Z" />
</svg>