<svg xmlns="http://www.w3.org/2000/svg" width="15" height="17" viewBox="0 0 142 142" fill="none">
  <g>
    <path d="M50.335 16.6666H35.335C26.0008 16.6666 21.3302 16.6666 17.765 18.4832C14.6289 20.0811 12.0811 22.6289 10.4833 25.765C8.66667 29.3301 8.66667 34.0007 8.66667 43.335V106.668C8.66667 116.002 8.66667 120.667 10.4833 124.232C12.0811 127.368 14.6289 129.921 17.765 131.518C21.3267 133.333 25.9916 133.333 35.3076 133.333H98.6925C108.008 133.333 112.667 133.333 116.228 131.518C119.364 129.921 121.921 127.366 123.518 124.23C125.333 120.668 125.333 116.008 125.333 106.692V91.6666M133.667 50V8.33331M133.667 8.33331H92M133.667 8.33331L75.3333 66.6666" stroke="currentColor" stroke-width="16.6667" stroke-linecap="round" stroke-linejoin="round"/>
  </g>
</svg>